ffmpeg version 3.4.8-0ubuntu0.2 Copyright (c) 2000-2020 the FFmpeg developers
  built with gcc 7 (Ubuntu 7.5.0-3ubuntu1~18.04)
  configuration: --prefix=/usr --extra-version=0ubuntu0.2 --toolchain=hardened --libdir=/usr/lib/x86_64-linux-gnu --incdir=/usr/include/x86_64-linux-gnu --enable-gpl --disable-stripping --enable-avresample --enable-avisynth --enable-gnutls --enable-ladspa --enable-libass --enable-libbluray --enable-libbs2b --enable-libcaca --enable-libcdio --enable-libflite --enable-libfontconfig --enable-libfreetype --enable-libfribidi --enable-libgme --enable-libgsm --enable-libmp3lame --enable-libmysofa --enable-libopenjpeg --enable-libopenmpt --enable-libopus --enable-libpulse --enable-librubberband --enable-librsvg --enable-libshine --enable-libsnappy --enable-libsoxr --enable-libspeex --enable-libssh --enable-libtheora --enable-libtwolame --enable-libvorbis --enable-libvpx --enable-libwavpack --enable-libwebp --enable-libx265 --enable-libxml2 --enable-libxvid --enable-libzmq --enable-libzvbi --enable-omx --enable-openal --enable-opengl --enable-sdl2 --enable-libdc1394 --enable-libdrm --enable-libiec61883 --enable-chromaprint --enable-frei0r --enable-libopencv --enable-libx264 --enable-shared
  libavutil      55. 78.100 / 55. 78.100
  libavcodec     57.107.100 / 57.107.100
  libavformat    57. 83.100 / 57. 83.100
  libavdevice    57. 10.100 / 57. 10.100
  libavfilter     6.107.100 /  6.107.100
  libavresample   3.  7.  0 /  3.  7.  0
  libswscale      4.  8.100 /  4.  8.100
  libswresample   2.  9.100 /  2.  9.100
  libpostproc    54.  7.100 / 54.  7.100
[rawvideo @ 0x55ecba327a20] Estimating duration from bitrate, this may be inaccurate
Input #0, rawvideo, from '../../SVC-Encoder-20220109T061506Z-001/SVC-Encoder/Dataset/RollerCoaster/6f_2x2/tile_yuv/f5_t0_480x480.yuv':
  Duration: 00:00:10.00, start: 0.000000, bitrate: 82944 kb/s
    Stream #0:0: Video: rawvideo (I420 / 0x30323449), yuv420p, 480x480, 82944 kb/s, 30 tbr, 30 tbn, 30 tbc
Stream mapping:
  Stream #0:0 -> #0:0 (rawvideo (native) -> h264 (libx264))
Press [q] to stop, [?] for help
[libx264 @ 0x55ecba334c60] using cpu capabilities: MMX2 SSE2Fast LZCNT SSSE3 SSE4.2 AVX
[libx264 @ 0x55ecba334c60] profile High, level 3.0
Output #0, rawvideo, to 'RollerCoaster_f5_t0_480x480_x264_QP_32.h264':
  Metadata:
    encoder         : Lavf57.83.100
    Stream #0:0: Video: h264 (libx264), yuv420p, 480x480, q=-1--1, 30 fps, 30 tbn, 30 tbc
    Metadata:
      encoder         : Lavc57.107.100 libx264
    Side data:
      cpb: bitrate max/min/avg: 0/0/0 buffer size: 0 vbv_delay: -1
frame=  300 fps=0.0 q=38.0 LPSNR=Y:inf U:inf V:inf *:inf size=      40kB time=00:00:09.93 bitrate=  33.2kbits/s speed=18.9x    
video:40kB audio:0kB subtitle:0kB other streams:0kB global headers:0kB muxing overhead: 0.000000%
[libx264 @ 0x55ecba334c60] frame I:2     Avg QP:31.51  size:  2480  PSNR Mean Y:45.16 U:48.51 V:50.08 Avg:46.14 Global:46.06
[libx264 @ 0x55ecba334c60] frame P:96    Avg QP:33.57  size:   260  PSNR Mean Y:42.94 U:47.43 V:49.14 Avg:44.09 Global:43.94
[libx264 @ 0x55ecba334c60] frame B:202   Avg QP:37.60  size:    56  PSNR Mean Y:43.31 U:47.72 V:49.37 Avg:44.45 Global:44.39
[libx264 @ 0x55ecba334c60] consecutive B-frames:  7.0%  8.7%  3.0% 81.3%
[libx264 @ 0x55ecba334c60] mb I  I16..4: 26.4% 71.4%  2.2%
[libx264 @ 0x55ecba334c60] mb P  I16..4:  1.1%  2.4%  0.0%  P16..4:  4.8%  1.1%  0.2%  0.0%  0.0%    skip:90.2%
[libx264 @ 0x55ecba334c60] mb B  I16..4:  0.0%  0.0%  0.0%  B16..8:  3.1%  0.1%  0.0%  direct: 0.0%  skip:96.8%  L0:36.0% L1:63.5% BI: 0.5%
[libx264 @ 0x55ecba334c60] 8x8 transform intra:69.1% inter:62.3%
[libx264 @ 0x55ecba334c60] coded y,uvDC,uvAC intra: 3.8% 11.8% 0.8% inter: 0.3% 0.2% 0.0%
[libx264 @ 0x55ecba334c60] i16 v,h,dc,p: 40% 45%  7%  8%
[libx264 @ 0x55ecba334c60] i8 v,h,dc,ddl,ddr,vr,hd,vl,hu:  0%  2% 96%  0%  0%  0%  0%  0%  1%
[libx264 @ 0x55ecba334c60] i4 v,h,dc,ddl,ddr,vr,hd,vl,hu:  3% 16% 50%  5%  3%  4%  6%  2% 12%
[libx264 @ 0x55ecba334c60] i8c dc,h,v,p: 90%  7%  3%  1%
[libx264 @ 0x55ecba334c60] Weighted P-Frames: Y:0.0% UV:0.0%
[libx264 @ 0x55ecba334c60] ref P L0: 61.9% 21.8% 11.8%  4.5%
[libx264 @ 0x55ecba334c60] ref B L0: 75.3% 20.0%  4.7%
[libx264 @ 0x55ecba334c60] ref B L1: 80.0% 20.0%
[libx264 @ 0x55ecba334c60] PSNR Mean Y:43.202 U:47.635 V:49.301 Avg:44.346 Global:44.249 kb/s:32.95
